<?xml version="1.0" standalone="no"?>
<!DOCTYPE svg PUBLIC "-//W3C//DTD SVG 20010904//EN"
 "http://www.w3.org/TR/2001/REC-SVG-20010904/DTD/svg10.dtd">
<svg version="1.0" xmlns="http://www.w3.org/2000/svg"
 width="400.000000pt" height="400.000000pt" viewBox="0 0 400.000000 400.000000"
 preserveAspectRatio="xMidYMid meet">

<g transform="translate(0.000000,400.000000) scale(0.100000,-0.100000)"
fill="#000000" stroke="none">
<path d="M2280 3094 c-36 -7 -99 -30 -140 -50 -70 -34 -101 -62 -503 -463
-303 -302 -434 -439 -450 -471 -29 -60 -30 -157 0 -221 25 -57 87 -120 145
-151 65 -34 167 -32 229 4 27 16 196 180 412 401 260 264 381 382 417 401 134
73 304 65 415 -20 40 -30 38 -31 53 14 19 55 24 144 13 207 -48 263 -301 412
-591 349z"/>
<path d="M2495 2275 c-22 -8 -42 -15 -44 -15 -3 0 -183 -177 -400 -394 -255
-253 -411 -401 -438 -415 -53 -26 -146 -51 -193 -51 -89 0 -187 52 -230 123
l-17 28 -17 -41 c-133 -332 136 -658 504 -613 103 13 179 38 253 83 38 23 197
176 485 464 465 467 452 451 452 563 0 111 -98 234 -212 268 -63 18 -91 18
-143 0z"/>
</g>
</svg>
